# File created by Blade
# Date/Time:  Wed Apr 08 16:19:59 2015
# Frame Rate: 120.000 fps
#------------------------------------------------------
:FULLY-SPECIFIED
:DEGREES
2491
root -20.486931 28.417427 0.533606 345.239452 -79.039787 -405.857568
Spine -73.004340 -13.035535 5.427262
Head -88.792479 2.725972 15.546235
LeftShoulder -15.617182 -5.783786 45.075487
LeftArm 228.930614 -64.419771 -193.666358
LeftForeArm -15.516147 0.000000 20.173413
LeftHand 18.182257 0.000000 109.612845
LeftHandThumb1 -26.253704 0.000000 33.147579
RightShoulder -29.525908 39.784753 -71.088698
RightArm -38.640746 71.343995 -25.410840
RightForeArm 21.763326 -0.000000 54.525174
RightHand 18.915910 -0.000000 -91.179401
RightHandThumb1 -24.326973 -0.000000 -32.862282
LeftUpLeg 1.476549 12.006234 11.722989
LeftLeg 66.998929 -0.000000 -0.000000
LeftFoot 3.656686 10.150352 -7.009683
LeftToeBase -24.526873 -0.000000 0.000000
RightUpLeg 4.305394 -15.132480 -11.461718
RightLeg 53.856151 -0.000000 -0.000000
RightFoot 29.529880 4.988293 3.120630
RightToeBase -44.986599 -0.000000 0.000000
2492
root -20.479646 28.410891 0.531549 344.864196 -79.188312 -405.528984
Spine -72.910359 -12.883965 5.411867
Head -88.845807 2.748125 15.477963
LeftShoulder -15.591102 -5.737825 45.034142
LeftArm 229.065060 -64.305372 -193.814705
LeftForeArm -15.512687 -0.000000 20.253125
LeftHand 18.119983 -0.000000 109.583864
LeftHandThumb1 -26.253704 0.000000 33.147579
RightShoulder -29.470948 39.655929 -71.012914
RightArm -39.091160 71.310495 -25.702617
RightForeArm 21.904968 0.000000 54.748281
RightHand 18.939499 -0.000000 -90.965015
RightHandThumb1 -24.326973 -0.000000 -32.862282
LeftUpLeg 1.408192 12.068865 11.753236
LeftLeg 68.042918 -0.000000 -0.000000
LeftFoot 3.121214 10.606060 -7.689909
LeftToeBase -24.556277 -0.000000 0.000000
RightUpLeg 4.296945 -15.158207 -11.539865
RightLeg 53.869717 -0.000000 -0.000000
RightFoot 29.550946 4.977576 2.908880
RightToeBase -45.305401 -0.000000 0.000000
2493
root -20.472147 28.403913 0.532291 344.453942 -79.333499 -405.160358
Spine -72.819554 -12.724658 5.383264
Head -88.899550 2.781701 15.384569
LeftShoulder -15.565030 -5.736754 45.032058
LeftArm 229.187120 -64.237643 -194.017692
LeftForeArm -15.547660 -0.000000 20.393078
LeftHand 18.185665 -0.000000 109.609497
LeftHandThumb1 -26.253704 0.000000 33.147579
RightShoulder -29.397731 39.617480 -70.895454
RightArm -39.264528 71.107040 -25.876667
RightForeArm 22.028130 -0.000000 54.867398
RightHand 18.933687 0.000000 -90.887831
RightHandThumb1 -24.326973 -0.000000 -32.862282
LeftUpLeg 1.370676 12.121083 11.777470
LeftLeg 69.187470 -0.000000 -0.000000
LeftFoot 2.392205 11.045005 -8.280414
LeftToeBase -24.615745 -0.000000 0.000000
RightUpLeg 4.289262 -15.195860 -11.627872
RightLeg 53.872114 -0.000000 -0.000000
RightFoot 29.572344 4.919920 2.692043
RightToeBase -45.723086 -0.000000 0.000000
2494
root -20.465843 28.396911 0.526991 344.173257 -79.455125 -404.923808
Spine -72.737144 -12.619994 5.388394
Head -88.924372 2.850232 15.301161
LeftShoulder -15.558713 -5.771064 45.052535
LeftArm 229.221029 -64.203968 -194.116537
LeftForeArm -15.536272 -0.000000 20.561103
LeftHand 18.181486 -0.000000 109.560673
LeftHandThumb1 -26.253704 0.000000 33.147579
RightShoulder -29.297302 39.541589 -70.757222
RightArm -39.534401 70.874643 -26.093247
RightForeArm 22.145297 0.000000 55.007507
RightHand 18.807220 -0.000000 -90.839863
RightHandThumb1 -24.326973 -0.000000 -32.862282
LeftUpLeg 1.359945 12.107699 11.847686
LeftLeg 70.427219 -0.000000 -0.000000
LeftFoot 1.540471 11.090955 -8.696472
LeftToeBase -24.412588 -0.000000 0.000000
RightUpLeg 4.280957 -15.255340 -11.670067
RightLeg 53.896467 -0.000000 -0.000000
RightFoot 29.580787 4.862892 2.366321
RightToeBase -45.992130 -0.000000 0.000000
2495
root -20.455919 28.388774 0.520407 343.869138 -79.557035 -404.635801
Spine -72.693623 -12.545283 5.402292
Head -88.932367 2.942350 15.222111
LeftShoulder -15.584590 -5.714059 45.050503
LeftArm 228.946925 -64.050426 -193.902342
LeftForeArm -15.405522 0.000000 20.771458
LeftHand 18.200210 -0.000000 109.468048
LeftHandThumb1 -26.253704 0.000000 33.147579
RightShoulder -29.266670 39.488915 -70.665158
RightArm -39.578120 70.652695 -26.026247
RightForeArm 22.141292 0.000000 55.094152
RightHand 18.796705 0.000000 -90.799480
RightHandThumb1 -24.326973 -0.000000 -32.862282
LeftUpLeg 1.348643 12.075835 11.912781
LeftLeg 71.742645 -0.000000 -0.000000
LeftFoot 0.778164 10.848044 -9.203806
LeftToeBase -24.339841 -0.000000 0.000000
RightUpLeg 4.243240 -15.321249 -11.701227
RightLeg 53.916260 -0.000000 -0.000000
RightFoot 29.560265 4.762328 2.157528
RightToeBase -46.272109 -0.000000 0.000000
2496
root -20.449818 28.382604 0.517620 343.528539 -79.673274 -404.341598
Spine -72.618848 -12.450803 5.434279
Head -88.940952 3.037944 15.158539
LeftShoulder -15.607457 -5.726500 45.062791
LeftArm 228.846527 -63.992690 -193.844114
LeftForeArm -15.349449 0.000000 20.939778
LeftHand 18.272162 -0.000000 109.394389
LeftHandThumb1 -26.253704 0.000000 33.147579
RightShoulder -29.231244 39.417485 -70.569432
RightArm -39.682537 70.544482 -26.001065
RightForeArm 22.149879 0.000000 55.197787
RightHand 18.876350 0.000000 -90.749770
RightHandThumb1 -24.326973 -0.000000 -32.862282
LeftUpLeg 1.423230 12.078195 11.987309
LeftLeg 73.107739 -0.000000 -0.000000
LeftFoot 0.070042 10.599177 -9.552601
LeftToeBase -24.163754 -0.000000 0.000000
RightUpLeg 4.238197 -15.374988 -11.747204
RightLeg 53.935050 -0.000000 -0.000000
RightFoot 29.533407 4.560274 2.095084
RightToeBase -46.530934 -0.000000 0.000000
2497
root -20.445291 28.379250 0.513631 343.188633 -79.791268 -404.075249
Spine -72.529551 -12.373557 5.470691
Head -88.917227 3.157546 15.131212
LeftShoulder -15.603182 -5.781693 45.114921
LeftArm 228.815060 -63.971420 -193.845048
LeftForeArm -15.210419 0.000000 21.102003
LeftHand 18.265636 -0.000000 109.313049
LeftHandThumb1 -26.253704 0.000000 33.147579
RightShoulder -29.139567 39.317884 -70.433131
RightArm -39.967315 70.511105 -26.129640
RightForeArm 22.083114 -0.000000 55.329757
RightHand 18.850355 -0.000000 -90.592278
RightHandThumb1 -24.326973 -0.000000 -32.862282
LeftUpLeg 1.580828 12.025779 12.093282
LeftLeg 74.511457 -0.000000 -0.000000
LeftFoot -0.478759 10.203190 -9.759929
LeftToeBase -24.940395 -0.000000 0.000000
RightUpLeg 4.269195 -15.407970 -11.777391
RightLeg 53.940163 -0.000000 -0.000000
RightFoot 29.524473 4.334313 2.023779
RightToeBase -46.765335 -0.000000 0.000000
